<svg xmlns="http://www.w3.org/2000/svg" width="164.326" height="188.281" viewBox="0 0 164.326 188.281">
  <path id="Path_1" data-name="Path 1" d="M79.154-61.449h33.1l14.7,18.516L145-22.219,173.815,13.54H136.9L116.648-10.646,105.192-27.311Zm12.5,63.763q-23.26,0-41.834-10.3T20.367-38.073Q9.489-57.861,9.489-86.1q0-28.468,10.878-48.256t29.451-30.088q18.573-10.3,41.834-10.3,23.145,0,41.718,10.3t29.394,30.088q10.82,19.789,10.82,48.256,0,28.352-10.82,48.141T133.37-7.927Q114.8,2.314,91.652,2.314Zm0-35.874q12.5,0,21.524-6.018t13.887-17.763q4.86-11.746,4.86-28.757,0-17.127-4.86-28.931T113.177-132.85q-9.026-6.018-21.524-6.018-12.614,0-21.64,6.075T56.125-114.97q-4.86,11.746-4.86,28.873,0,17.011,4.86,28.7T70.012-39.635Q79.039-33.56,91.652-33.56Z" transform="translate(-9.489 174.741)" fill="#fff"/>
</svg>
